# xmcd
#
# Track frame offsets:
# 150
# 28450
# 49507
# 73785
# 100637
# 133322
# 168425
# 196085
# 221665
# 245422
# 267545
#
# Disc length: 3900 seconds
#
# Revision: 1
# Processed by: cddbd v1.5PL3 Copyright (c) Steve Scherf et al.
# Submitted via: Easy CD Ripper v2.14
#
DISCID=a60f3a0b
DTITLE=2Kool - Warm It Up
DYEAR=1995
DGENRE=Ethnic
TTITLE0=O Mere Sona Re  - Afro and Flares - Nephie Rodrigues
TTITLE1=Come In To My Life - Zindagi Mi - Nephie Rodrigues/Don Dee
TTITLE2=Tere Dar Pe Sanam Hum - Beauty - Nephie Rodrigues/Don Dee
TTITLE3=Bolo Bolo - Massive Junglee Mix - Nephie Rodrigues
TTITLE4=O Mungda - Desh (i) Adda Mix - Nephie Rodrigues
TTITLE5=Pyar Do Pyar Lo - Zulu Tribal M - Nephie Rodrigues
TTITLE6=2U Sanam - Instrumental
TTITLE7=
TTITLE8=
TTITLE9=
TTITLE10=
EXTD=
EXTT0=
EXTT1=
EXTT2=
EXTT3=
EXTT4=
EXTT5=
EXTT6=
EXTT7=
EXTT8=
EXTT9=
EXTT10=
PLAYORDER=
